<?xml version="1.0" encoding="utf-8"?>
<!-- Generator: Adobe Illustrator 22.1.0, SVG Export Plug-In . SVG Version: 6.00 Build 0)  -->
<svg version="1.1" xmlns="http://www.w3.org/2000/svg" xmlns:xlink="http://www.w3.org/1999/xlink" x="0px" y="0px"
	 viewBox="0 0 500 500" style="enable-background:new 0 0 500 500;" xml:space="preserve">
<style type="text/css">
	.st0{display:none;fill-rule:evenodd;clip-rule:evenodd;fill:#FEFEFE;}
	.st1{fill-rule:evenodd;clip-rule:evenodd;fill:#259026;}
	.st2{fill:#FEFEFE;}
	.st3{fill-rule:evenodd;clip-rule:evenodd;fill:#FEFEFE;}
</style>
<g id="Stripe">
</g>
<g id="WhiteCircle">
	<path class="st0" d="M176.7,176.6c47.6,0,86.2,38.6,86.2,86.2c0,47.6-38.6,86.2-86.2,86.2c-47.6,0-86.2-38.6-86.2-86.2
		C90.5,215.2,129.1,176.6,176.7,176.6"/>
</g>
<g id="GreenCircle">
	<path class="st1" d="M251.1,51.9c109.4,0,198.1,88.7,198.1,198.1c0,109.4-88.7,198.1-198.1,198.1S53,359.4,53,250
		C53,140.6,141.7,51.9,251.1,51.9"/>
</g>
<g id="A_x5F_Circle">
</g>
<g id="IN">
	<path class="st2" d="M368.8,324.2c0,1-0.3,1.9-1,2.7c-0.6,0.8-1.7,1.4-3.1,2c-1.5,0.5-3.5,0.9-6.1,1.2c-2.6,0.3-5.7,0.4-9.5,0.4
		c-3.9,0-7.1-0.1-9.7-0.4c-2.6-0.3-4.6-0.7-6.1-1.2c-1.4-0.5-2.5-1.2-3.1-2c-0.6-0.8-1-1.7-1-2.7v-79.9c0-6.8-0.5-12.2-1.5-16
		c-1-3.9-2.4-7.2-4.3-10c-1.9-2.8-4.3-4.9-7.3-6.5c-3-1.5-6.4-2.3-10.4-2.3c-5,0-10.1,1.8-15.2,5.5c-5.1,3.6-10.5,9-16,16v93.2
		c0,1-0.3,1.9-1,2.7c-0.6,0.8-1.7,1.4-3.2,2c-1.5,0.5-3.5,0.9-6,1.2c-2.5,0.3-5.7,0.4-9.6,0.4c-3.9,0-7.1-0.1-9.6-0.4
		c-2.5-0.3-4.5-0.7-6-1.2c-1.6-0.5-2.6-1.2-3.2-2c-0.6-0.8-1-1.7-1-2.7v-6.6c-3.4,2.6-6.8,4.8-10.3,6.6c-8,4.2-16.4,6.3-25,6.3
		c-9.5,0-17.6-1.6-24.1-4.7c-6.5-3.1-11.8-7.4-15.9-12.8c-4-5.4-6.9-11.7-8.7-18.9c-1.8-7.2-2.7-15.9-2.7-26.1v-86.6
		c0-1,0.3-1.9,1-2.7c0.6-0.8,1.7-1.4,3.1-2c1.5-0.5,3.5-0.9,6.1-1.2c2.6-0.3,5.7-0.4,9.5-0.4c3.9,0,7.1,0.1,9.7,0.4
		c2.6,0.3,4.6,0.7,6.1,1.2c1.4,0.5,2.5,1.2,3.1,2c0.6,0.8,1,1.7,1,2.7v79.9c0,6.8,0.5,12.2,1.5,16c1,3.9,2.4,7.2,4.3,10
		c1.9,2.8,4.3,4.9,7.3,6.5c3,1.5,6.4,2.3,10.4,2.3c5,0,10.1-1.8,15.2-5.5c2.7-2,5.6-4.4,8.4-7.4v-99.2c0-1,0.3-1.9,0.8-2.7
		c0.5-0.8,1.4-1.4,2.8-2c1.4-0.5,3.1-0.9,5.3-1.2c2.1-0.3,4.9-0.4,8.1-0.4c3.4,0,6.1,0.1,8.3,0.4c2.2,0.3,3.9,0.7,5.1,1.2
		c1.2,0.5,2,1.2,2.6,2c0.5,0.8,0.8,1.7,0.8,2.7v16.2c7.7-8.4,15.6-14.6,23.6-18.8c8-4.2,16.4-6.3,25-6.3c9.5,0,17.6,1.6,24.1,4.7
		c6.5,3.1,11.8,7.4,15.9,12.8c4,5.4,6.9,11.7,8.7,18.9c1.8,7.2,2.7,15.9,2.7,26.1V324.2z"/>
</g>
<g id="CircleWhite_x5F_In">
	<path class="st3" d="M105.7,76c29.7,0,53.8,24.1,53.8,53.8c0,29.7-24.1,53.8-53.8,53.8c-29.7,0-53.8-24.1-53.8-53.8
		C51.8,100.1,75.9,76,105.7,76"/>
</g>
<g id="CircleGreen_x5F_In">
	<path class="st1" d="M105.7,97.7c17.4,0,31.6,14.1,31.6,31.6c0,17.4-14.1,31.6-31.6,31.6c-17.4,0-31.6-14.1-31.6-31.6
		C74.1,111.8,88.2,97.7,105.7,97.7"/>
</g>
<g id="MediaAgency">
</g>
<g id="y">
</g>
<g id="A">
</g>
<g id="L">
</g>
<g id="P">
</g>
</svg>
